<svg width="581" height="720" viewBox="0 0 581 720" fill="none" xmlns="http://www.w3.org/2000/svg">
<mask id="path-1-inside-1_21_648" fill="white">
<path d="M511.143 660.023C445.956 698.391 371.874 719.055 296.239 719.968C220.605 720.882 146.046 702.012 79.9516 665.229L80.3737 664.471C146.336 701.18 220.746 720.012 296.229 719.1C371.712 718.189 445.646 697.566 510.702 659.275L511.143 660.023Z"/>
</mask>
<path d="M511.143 660.023C445.956 698.391 371.874 719.055 296.239 719.968C220.605 720.882 146.046 702.012 79.9516 665.229L80.3737 664.471C146.336 701.18 220.746 720.012 296.229 719.1C371.712 718.189 445.646 697.566 510.702 659.275L511.143 660.023Z" stroke="#A3887B" stroke-width="2" mask="url(#path-1-inside-1_21_648)"/>
<path d="M302.523 684.39H304.828C305.475 684.39 306 684.936 306 685.61C306 686.283 305.475 686.829 304.828 686.829H302.523C301.876 686.829 301.352 686.283 301.352 685.61C301.352 684.936 301.876 684.39 302.523 684.39ZM277.172 686.829H279.477C280.124 686.829 280.648 686.283 280.648 685.61C280.648 684.936 280.124 684.39 279.477 684.39H277.172C276.525 684.39 276 684.936 276 685.61C276 686.283 276.525 686.829 277.172 686.829ZM291 674.837C291.647 674.837 292.172 674.291 292.172 673.618V671.22C292.172 670.546 291.647 670 291 670C290.353 670 289.828 670.546 289.828 671.22V673.618C289.828 674.291 290.353 674.837 291 674.837ZM282.023 677.993C282.481 678.469 283.223 678.469 283.68 677.993C284.138 677.516 284.138 676.744 283.68 676.268L282.051 674.572C281.593 674.096 280.851 674.096 280.393 674.572C279.936 675.048 279.936 675.82 280.393 676.297L282.023 677.993ZM299.977 677.993L301.607 676.297C302.064 675.82 302.064 675.048 301.607 674.572C301.149 674.096 300.407 674.096 299.949 674.572L298.32 676.268C297.862 676.744 297.862 677.516 298.32 677.993C298.777 678.469 299.519 678.469 299.977 677.993ZM306 692.805C306 693.478 305.475 694.024 304.828 694.024H277.172C276.525 694.024 276 693.478 276 692.805C276 692.131 276.525 691.585 277.172 691.585H285.299C283.821 690.058 282.904 687.943 282.904 685.61C282.904 680.964 286.536 677.185 291 677.185C295.464 677.185 299.096 680.964 299.096 685.61C299.096 687.943 298.179 690.058 296.701 691.585H304.828C305.475 691.585 306 692.131 306 692.805ZM290.669 691.585H291.332C294.35 691.406 296.752 688.795 296.752 685.61C296.752 682.309 294.172 679.624 291 679.624C287.828 679.624 285.248 682.309 285.248 685.61C285.248 688.795 287.651 691.406 290.669 691.585ZM300.219 697.561H281.781C281.134 697.561 280.609 698.107 280.609 698.78C280.609 699.454 281.134 700 281.781 700H300.219C300.866 700 301.391 699.454 301.391 698.78C301.391 698.107 300.866 697.561 300.219 697.561Z" fill="#A3887B"/>
</svg>
