<svg width="581" height="720" viewBox="0 0 581 720" fill="none" xmlns="http://www.w3.org/2000/svg">
<path d="M283.929 26.1613L282.161 24.3938C281.674 23.9056 280.881 23.9056 280.394 24.3938C279.906 24.8819 279.906 25.6731 280.394 26.1613L282.161 27.9288C282.277 28.0451 282.415 28.1374 282.567 28.2002C282.718 28.2631 282.881 28.2953 283.045 28.295C283.365 28.295 283.685 28.1731 283.929 27.9288C284.417 27.4406 284.417 26.6494 283.929 26.1613ZM279.75 33.75H277.25C276.56 33.75 276 34.31 276 35C276 35.69 276.56 36.25 277.25 36.25H279.75C280.44 36.25 281 35.69 281 35C281 34.31 280.44 33.75 279.75 33.75ZM283.929 42.0712C283.441 41.5831 282.649 41.5831 282.161 42.0712L280.394 43.8387C279.906 44.3269 279.906 45.1181 280.394 45.6063C280.638 45.8506 280.957 45.9725 281.278 45.9725C281.598 45.9725 281.918 45.8506 282.161 45.6063L283.929 43.8387C284.417 43.3506 284.417 42.5594 283.929 42.0712ZM291 45C290.31 45 289.75 45.56 289.75 46.25V48.75C289.75 49.44 290.31 50 291 50C291.69 50 292.25 49.44 292.25 48.75V46.25C292.25 45.56 291.69 45 291 45ZM301.606 43.8387L299.839 42.0712C299.351 41.5831 298.559 41.5831 298.071 42.0712C297.583 42.5594 297.583 43.3506 298.071 43.8387L299.839 45.6063C300.082 45.8506 300.403 45.9725 300.722 45.9725C301.042 45.9725 301.363 45.8506 301.606 45.6063C302.094 45.1181 302.094 44.3269 301.606 43.8387ZM304.75 33.75H302.25C301.56 33.75 301 34.31 301 35C301 35.69 301.56 36.25 302.25 36.25H304.75C305.44 36.25 306 35.69 306 35C306 34.31 305.44 33.75 304.75 33.75ZM301.606 24.3938C301.119 23.9056 300.326 23.9056 299.839 24.3938L298.071 26.1613C297.583 26.6494 297.583 27.4406 298.071 27.9288C298.315 28.1731 298.635 28.295 298.955 28.295C299.275 28.295 299.595 28.1731 299.839 27.9288L301.606 26.1613C302.094 25.6731 302.094 24.8819 301.606 24.3938ZM291 20C290.31 20 289.75 20.56 289.75 21.25V23.75C289.75 24.44 290.31 25 291 25C291.69 25 292.25 24.44 292.25 23.75V21.25C292.25 20.56 291.69 20 291 20ZM291 26.875C286.52 26.875 282.875 30.52 282.875 35C282.875 39.48 286.52 43.125 291 43.125C295.48 43.125 299.125 39.48 299.125 35C299.125 30.52 295.48 26.875 291 26.875ZM291 40.625C287.899 40.625 285.375 38.1012 285.375 35C285.375 31.8988 287.899 29.375 291 29.375C294.101 29.375 296.625 31.8988 296.625 35C296.625 38.1012 294.101 40.625 291 40.625Z" fill="#A3887B"/>
<mask id="path-2-inside-1_21_638" fill="white">
<path d="M511.143 59.977C445.956 21.6094 371.874 0.94479 296.239 0.031628C220.605 -0.881534 146.046 17.9885 79.9516 54.7711L80.3737 55.5295C146.336 18.8205 220.746 -0.0117904 296.229 0.899546C371.712 1.81088 445.646 22.4342 510.702 60.725L511.143 59.977Z"/>
</mask>
<path d="M511.143 59.977C445.956 21.6094 371.874 0.94479 296.239 0.031628C220.605 -0.881534 146.046 17.9885 79.9516 54.7711L80.3737 55.5295C146.336 18.8205 220.746 -0.0117904 296.229 0.899546C371.712 1.81088 445.646 22.4342 510.702 60.725L511.143 59.977Z" stroke="#A3887B" stroke-width="2" mask="url(#path-2-inside-1_21_638)"/>
</svg>
