<svg width="60" height="60" viewBox="0 0 60 60" fill="none" xmlns="http://www.w3.org/2000/svg">
<g clip-path="url(#clip0_7135_250)">
<path d="M47.0559 0H12.9441C11.9979 0.00124026 11.0908 0.377664 10.4217 1.04672C9.75266 1.71578 9.37624 2.62287 9.375 3.56906V56.4309C9.37624 57.3771 9.75266 58.2842 10.4217 58.9533C11.0908 59.6223 11.9979 59.9988 12.9441 60H47.0559C48.0021 59.9988 48.9092 59.6223 49.5783 58.9533C50.2473 58.2842 50.6238 57.3771 50.625 56.4309V3.56906C50.6238 2.62287 50.2473 1.71578 49.5783 1.04672C48.9092 0.377664 48.0021 0.00124026 47.0559 0ZM48.75 56.4309C48.7493 56.88 48.5705 57.3105 48.253 57.628C47.9355 57.9455 47.505 58.1243 47.0559 58.125H12.9441C12.495 58.1243 12.0645 57.9455 11.747 57.628C11.4295 57.3105 11.2507 56.88 11.25 56.4309V3.56906C11.2507 3.12 11.4295 2.68954 11.747 2.372C12.0645 2.05446 12.495 1.87574 12.9441 1.875H47.0559C47.505 1.87574 47.9355 2.05446 48.253 2.372C48.5705 2.68954 48.7493 3.12 48.75 3.56906V56.4309Z" fill="#A3887B"/>
<path d="M45.9375 3.75H14.0625C13.8139 3.75 13.5754 3.84877 13.3996 4.02459C13.2238 4.2004 13.125 4.43886 13.125 4.6875V55.3125C13.125 55.5611 13.2238 55.7996 13.3996 55.9754C13.5754 56.1512 13.8139 56.25 14.0625 56.25H45.9375C46.1861 56.25 46.4246 56.1512 46.6004 55.9754C46.7762 55.7996 46.875 55.5611 46.875 55.3125V4.6875C46.875 4.43886 46.7762 4.2004 46.6004 4.02459C46.4246 3.84877 46.1861 3.75 45.9375 3.75ZM45 54.375H15V5.625H45V54.375Z" fill="#A3887B"/>
<path d="M20.8997 37.7746L37.7747 20.8996L39.1003 22.2252L22.2253 39.1002L20.8997 37.7746ZM25.5872 38.7112L34.0247 30.2737L35.3512 31.6002L26.9137 40.0377L25.5872 38.7112ZM23.7122 29.3362L33.0872 19.9612L34.4128 21.2877L25.0378 30.6627L23.7122 29.3362Z" fill="#A3887B"/>
</g>
<defs>
<clipPath id="clip0_7135_250">
<rect width="60" height="60" fill="white"/>
</clipPath>
</defs>
</svg>
